<mxfile host="app.diagrams.net" agent="Mozilla/5.0 (Windows NT 10.0; Win64; x64) AppleWebKit/537.36 (KHTML, like Gecko) Chrome/130.0.0.0 Safari/537.36 Edg/130.0.0.0" version="24.8.6">
  <diagram name="PÃ¡gina-1" id="_tjehjeqC8xvkfCc-J5Z">
    <mxGraphModel dx="1188" dy="623" grid="1" gridSize="10" guides="1" tooltips="1" connect="1" arrows="1" fold="1" page="1" pageScale="1" pageWidth="1169" pageHeight="827" math="0" shadow="0">
      <root>
        <mxCell id="0" />
        <mxCell id="1" parent="0" />
        <mxCell id="DlVep3OspXq9EbIrWhgd-5" value="Client" style="swimlane;whiteSpace=wrap;html=1;fillColor=#f5f5f5;fontColor=#333333;strokeColor=#666666;opacity=50;" vertex="1" parent="1">
          <mxGeometry x="40" y="283" width="160" height="227" as="geometry" />
        </mxCell>
        <mxCell id="DlVep3OspXq9EbIrWhgd-11" value="" style="shape=actor;whiteSpace=wrap;html=1;fillColor=#dae8fc;strokeColor=#6c8ebf;verticalAlign=top;labelPosition=center;verticalLabelPosition=bottom;align=center;fontStyle=0" vertex="1" parent="DlVep3OspXq9EbIrWhgd-5">
          <mxGeometry x="60" y="88.5" width="40" height="60" as="geometry" />
        </mxCell>
        <mxCell id="DlVep3OspXq9EbIrWhgd-6" value="API Gateway" style="swimlane;whiteSpace=wrap;html=1;startSize=23;fillColor=#f5f5f5;fontColor=#333333;strokeColor=#666666;opacity=50;" vertex="1" parent="1">
          <mxGeometry x="200" y="283" width="185" height="227" as="geometry" />
        </mxCell>
        <mxCell id="DlVep3OspXq9EbIrWhgd-125" value="200" style="edgeStyle=orthogonalEdgeStyle;rounded=0;orthogonalLoop=1;jettySize=auto;html=1;fontStyle=0" edge="1" parent="DlVep3OspXq9EbIrWhgd-6" source="DlVep3OspXq9EbIrWhgd-17">
          <mxGeometry relative="1" as="geometry">
            <mxPoint x="210" y="118.50000000000023" as="targetPoint" />
          </mxGeometry>
        </mxCell>
        <mxCell id="DlVep3OspXq9EbIrWhgd-17" value="Authorization and Authentication" style="rounded=0;whiteSpace=wrap;html=1;fillColor=#d5e8d4;strokeColor=#82b366;fontStyle=0" vertex="1" parent="DlVep3OspXq9EbIrWhgd-6">
          <mxGeometry x="50" y="94" width="90" height="49" as="geometry" />
        </mxCell>
        <mxCell id="DlVep3OspXq9EbIrWhgd-7" value="Pix System" style="swimlane;whiteSpace=wrap;html=1;startSize=23;fillColor=#f5f5f5;fontColor=#333333;strokeColor=#666666;opacity=50;" vertex="1" parent="1">
          <mxGeometry x="385" y="283" width="260" height="227" as="geometry" />
        </mxCell>
        <mxCell id="DlVep3OspXq9EbIrWhgd-124" value="" style="rounded=0;whiteSpace=wrap;html=1;" vertex="1" parent="DlVep3OspXq9EbIrWhgd-7">
          <mxGeometry x="30" y="60" width="202.5" height="130" as="geometry" />
        </mxCell>
        <mxCell id="DlVep3OspXq9EbIrWhgd-113" value="QR Code" style="rounded=0;whiteSpace=wrap;html=1;fillColor=#ffe6cc;strokeColor=#d79b00;fontStyle=0" vertex="1" parent="DlVep3OspXq9EbIrWhgd-7">
          <mxGeometry x="137.5" y="77" width="80" height="40" as="geometry" />
        </mxCell>
        <mxCell id="DlVep3OspXq9EbIrWhgd-112" value="DICT" style="rounded=0;whiteSpace=wrap;html=1;fillColor=#ffe6cc;strokeColor=#d79b00;fontStyle=0" vertex="1" parent="DlVep3OspXq9EbIrWhgd-7">
          <mxGeometry x="45" y="77" width="80" height="40" as="geometry" />
        </mxCell>
        <mxCell id="DlVep3OspXq9EbIrWhgd-114" value="Transaction" style="rounded=0;whiteSpace=wrap;html=1;fillColor=#ffe6cc;strokeColor=#d79b00;fontStyle=0" vertex="1" parent="DlVep3OspXq9EbIrWhgd-7">
          <mxGeometry x="45" y="137" width="80" height="40" as="geometry" />
        </mxCell>
        <mxCell id="DlVep3OspXq9EbIrWhgd-115" value="Backoffice" style="rounded=0;whiteSpace=wrap;html=1;fillColor=#ffe6cc;strokeColor=#d79b00;fontStyle=0" vertex="1" parent="DlVep3OspXq9EbIrWhgd-7">
          <mxGeometry x="137.5" y="137" width="80" height="40" as="geometry" />
        </mxCell>
        <mxCell id="DlVep3OspXq9EbIrWhgd-8" value="Authorizer (Moria)" style="swimlane;whiteSpace=wrap;html=1;startSize=23;fillColor=#f5f5f5;fontColor=#333333;strokeColor=#666666;opacity=50;" vertex="1" parent="1">
          <mxGeometry x="645" y="283" width="155" height="227" as="geometry" />
        </mxCell>
        <mxCell id="DlVep3OspXq9EbIrWhgd-121" value="AML/AF" style="shape=hexagon;perimeter=hexagonPerimeter2;whiteSpace=wrap;html=1;fixedSize=1;fillColor=#e1d5e7;strokeColor=#9673a6;fontStyle=0" vertex="1" parent="DlVep3OspXq9EbIrWhgd-8">
          <mxGeometry x="32.5" y="94.13" width="90" height="61.75" as="geometry" />
        </mxCell>
        <mxCell id="DlVep3OspXq9EbIrWhgd-9" value="Ledger" style="swimlane;whiteSpace=wrap;html=1;startSize=23;fillColor=#f5f5f5;fontColor=#333333;strokeColor=#666666;opacity=50;" vertex="1" parent="1">
          <mxGeometry x="800" y="283" width="160" height="227" as="geometry" />
        </mxCell>
        <mxCell id="DlVep3OspXq9EbIrWhgd-127" value="Transaction API" style="rounded=0;whiteSpace=wrap;html=1;fillColor=#f8cecc;strokeColor=#b85450;fontStyle=0" vertex="1" parent="DlVep3OspXq9EbIrWhgd-9">
          <mxGeometry x="35" y="103.5" width="90" height="43" as="geometry" />
        </mxCell>
        <mxCell id="DlVep3OspXq9EbIrWhgd-10" value="Partner" style="swimlane;whiteSpace=wrap;html=1;startSize=23;fillColor=#f5f5f5;fontColor=#333333;strokeColor=#666666;opacity=50;" vertex="1" parent="1">
          <mxGeometry x="960" y="283" width="170" height="227" as="geometry" />
        </mxCell>
        <mxCell id="DlVep3OspXq9EbIrWhgd-129" value="Partner System/BCB" style="rounded=0;whiteSpace=wrap;html=1;fillColor=#fff2cc;strokeColor=#d6b656;" vertex="1" parent="DlVep3OspXq9EbIrWhgd-10">
          <mxGeometry x="40" y="103.50999999999999" width="100" height="43" as="geometry" />
        </mxCell>
        <mxCell id="DlVep3OspXq9EbIrWhgd-123" value="AML = Anti-money laundering&lt;div style=&quot;font-size: 10px;&quot;&gt;AF = Antifraud detection&lt;/div&gt;" style="text;html=1;align=left;verticalAlign=top;whiteSpace=wrap;rounded=0;fontSize=10;" vertex="1" parent="1">
          <mxGeometry x="645" y="510" width="155" height="50" as="geometry" />
        </mxCell>
        <mxCell id="DlVep3OspXq9EbIrWhgd-21" value="Pix request" style="edgeStyle=orthogonalEdgeStyle;rounded=0;orthogonalLoop=1;jettySize=auto;html=1;fontStyle=0" edge="1" parent="1" source="DlVep3OspXq9EbIrWhgd-11" target="DlVep3OspXq9EbIrWhgd-17">
          <mxGeometry relative="1" as="geometry" />
        </mxCell>
        <mxCell id="DlVep3OspXq9EbIrWhgd-126" value="200" style="edgeStyle=orthogonalEdgeStyle;rounded=0;orthogonalLoop=1;jettySize=auto;html=1;" edge="1" parent="1" source="DlVep3OspXq9EbIrWhgd-124" target="DlVep3OspXq9EbIrWhgd-121">
          <mxGeometry relative="1" as="geometry" />
        </mxCell>
        <mxCell id="DlVep3OspXq9EbIrWhgd-128" value="200" style="edgeStyle=orthogonalEdgeStyle;rounded=0;orthogonalLoop=1;jettySize=auto;html=1;" edge="1" parent="1" source="DlVep3OspXq9EbIrWhgd-121" target="DlVep3OspXq9EbIrWhgd-127">
          <mxGeometry relative="1" as="geometry" />
        </mxCell>
        <mxCell id="DlVep3OspXq9EbIrWhgd-130" value="200" style="edgeStyle=orthogonalEdgeStyle;rounded=0;orthogonalLoop=1;jettySize=auto;html=1;" edge="1" parent="1" source="DlVep3OspXq9EbIrWhgd-127" target="DlVep3OspXq9EbIrWhgd-129">
          <mxGeometry relative="1" as="geometry" />
        </mxCell>
        <mxCell id="DlVep3OspXq9EbIrWhgd-131" value="BCB = Banco Central do Brasil" style="text;html=1;align=left;verticalAlign=top;whiteSpace=wrap;rounded=0;fontSize=10;" vertex="1" parent="1">
          <mxGeometry x="960" y="510" width="170" height="50" as="geometry" />
        </mxCell>
      </root>
    </mxGraphModel>
  </diagram>
</mxfile>
